<?xml version="1.0" standalone="no"?>
<!DOCTYPE svg PUBLIC "-//W3C//DTD SVG 20010904//EN"
 "http://www.w3.org/TR/2001/REC-SVG-20010904/DTD/svg10.dtd">
<svg version="1.0" xmlns="http://www.w3.org/2000/svg"
 width="126.000000pt" height="126.000000pt" viewBox="0 0 126.000000 126.000000"
 preserveAspectRatio="xMidYMid meet">

<g transform="translate(0.000000,126.000000) scale(0.100000,-0.100000)"
fill="#000000" stroke="none">
<path d="M470 885 l-165 -165 170 -170 170 -170 169 169 168 168 -167 164
c-92 90 -170 165 -173 167 -4 1 -81 -72 -172 -163z m405 -247 c-44 -46 -115
-116 -157 -157 l-78 -74 -155 154 -155 155 158 157 157 157 155 -155 154 -154
-79 -83z"/>
<path d="M583 920 c-59 -14 -123 -80 -143 -147 -25 -82 5 -164 83 -227 36 -28
45 -31 110 -30 85 0 93 2 135 32 51 37 82 99 82 166 0 73 -17 112 -68 158 -57
52 -120 67 -199 48z m35 -134 c2 -21 -1 -43 -7 -49 -8 -8 -11 -5 -11 11 0 31
-16 27 -25 -5 -4 -19 -2 -31 9 -39 23 -16 20 -24 -9 -24 -31 0 -43 -26 -22
-47 27 -27 65 -9 87 42 15 34 24 44 46 47 39 4 44 28 5 28 -16 0 -33 5 -36 10
-4 6 8 10 30 10 42 0 39 15 -5 24 -18 3 -29 10 -25 16 8 13 125 13 125 0 0 -5
-9 -10 -20 -10 -11 0 -20 -5 -20 -11 0 -6 9 -13 20 -16 23 -6 27 -23 6 -23 -7
0 -21 -11 -30 -25 -9 -14 -24 -25 -33 -25 -12 0 -6 -11 22 -40 29 -30 35 -40
21 -40 -9 0 -31 13 -49 29 l-31 30 -23 -33 c-26 -40 -63 -52 -101 -34 -34 16
-42 61 -14 79 12 8 17 20 14 35 -9 50 23 108 57 102 11 -2 17 -16 19 -42z"/>
<path d="M337 313 c161 -2 425 -2 585 0 161 1 30 2 -292 2 -322 0 -453 -1
-293 -2z"/>
<path d="M100 255 c0 -14 5 -25 11 -25 5 0 8 4 4 9 -3 5 3 12 12 14 17 4 17 5
0 6 -10 0 -15 6 -12 11 3 6 1 10 -4 10 -6 0 -11 -11 -11 -25z"/>
<path d="M182 259 c-7 -11 -11 -23 -8 -26 3 -3 8 2 12 11 6 15 7 15 20 -1 7
-10 14 -13 14 -7 0 5 -6 18 -12 27 -12 16 -14 16 -26 -4z"/>
<path d="M250 255 c0 -24 2 -27 11 -15 8 11 12 12 16 3 8 -21 18 -15 19 12 2
26 -11 34 -19 13 -4 -10 -8 -9 -16 2 -9 12 -11 9 -11 -15z"/>
<path d="M331 253 c0 -25 1 -26 9 -8 12 27 12 35 0 35 -5 0 -10 -12 -9 -27z"/>
<path d="M411 248 c0 -18 3 -26 6 -18 3 8 9 17 13 20 4 3 2 11 -6 18 -12 11
-14 8 -13 -20z"/>
<path d="M485 270 c-4 -6 1 -13 9 -16 9 -3 16 -10 16 -15 0 -4 -7 -6 -15 -3
-8 4 -15 4 -15 1 0 -12 30 -15 39 -3 7 9 5 17 -9 29 -11 9 -22 12 -25 7z"/>
<path d="M570 255 c0 -14 2 -25 4 -25 2 0 6 11 8 25 3 14 1 25 -3 25 -5 0 -9
-11 -9 -25z"/>
<path d="M660 254 c0 -14 4 -23 10 -19 6 3 10 15 10 26 0 10 -4 19 -10 19 -5
0 -10 -12 -10 -26z"/>
<path d="M738 260 c-7 -24 -3 -38 8 -28 3 4 4 17 2 30 l-3 23 -7 -25z"/>
<path d="M781 253 c0 -25 1 -26 9 -8 12 27 12 35 0 35 -5 0 -10 -12 -9 -27z"/>
<path d="M870 255 c0 -14 2 -25 4 -25 2 0 6 11 8 25 3 14 1 25 -3 25 -5 0 -9
-11 -9 -25z"/>
<path d="M930 255 c0 -14 5 -25 11 -25 5 0 8 4 5 9 -4 5 0 12 6 14 10 4 10 6
0 6 -7 1 -10 6 -7 11 3 6 1 10 -4 10 -6 0 -11 -11 -11 -25z"/>
<path d="M1003 264 c-4 -10 1 -22 12 -30 19 -14 35 -10 34 9 0 9 -2 9 -5 0 -6
-13 -34 -6 -34 8 0 5 10 14 23 19 l22 9 -23 0 c-12 1 -25 -6 -29 -15z"/>
<path d="M1080 256 c0 -14 5 -26 10 -26 6 0 10 9 10 19 0 11 -4 23 -10 26 -6
4 -10 -5 -10 -19z"/>
<path d="M1117 267 c-3 -8 -1 -20 4 -28 6 -10 9 -7 9 14 0 29 -5 35 -13 14z"/>
<path d="M360 246 c0 -9 5 -16 10 -16 6 0 10 4 10 9 0 6 -4 13 -10 16 -5 3
-10 -1 -10 -9z"/>
<path d="M806 252 c-3 -6 -1 -14 5 -17 15 -10 25 3 12 16 -7 7 -13 7 -17 1z"/>
</g>
</svg>
